ffmpeg started on 2025-06-04 at 20:25:20
Report written to "D:\Convert\FFMetrics\reports\psnr_report-6.txt"
Log level: 32
Command line:
ffmpeg -hide_banner -nostdin -i "G:\\\xc0\xed\xe8\xec\xe5\\\xce\xed\xe3\xee\xe8\xed\xe3\xe8\\!_36_\xce\xf1\xe5\xed\xfc_2024\\DreamCast\\\xc3\xf0\xe8\xe1\xed\xee\xe9 \xf9\xe5\xed\xee\xea\\[DC] Kinoko Inu - 12_Telegram_HEVC.mkv" -i "G:\\\xc0\xed\xe8\xec\xe5\\\xce\xed\xe3\xee\xe8\xed\xe3\xe8\\!_36_\xce\xf1\xe5\xed\xfc_2024\\DreamCast\\\xc3\xf0\xe8\xe1\xed\xee\xe9 \xf9\xe5\xed\xee\xea\\[DC] Kinoko Inu - 12_Telegram.mp4" -lavfi "[0:v]settb=AVTB,setpts=PTS-STARTPTS,format=pix_fmts=yuv420p10,fps=24000/1001,scale=1920:1080:flags=bicubic[main];[1:v]settb=AVTB,setpts=PTS-STARTPTS,format=pix_fmts=yuv420p,fps=24000/1001,scale=1920:1080:flags=bicubic[ref];[main][ref]psnr=eof_action=endall:stats_file='D\\:/Convert/FFMetrics/logs/psnr_logfile-6.txt'" -f null -
Input #0, matroska,webm, from 'G:\Аниме\Онгоинги\!_36_Осень_2024\DreamCast\Грибной щенок\[DC] Kinoko Inu - 12_Telegram_HEVC.mkv':
  Metadata:
    COMPATIBLE_BRANDS: isomiso2avc1mp41
    MAJOR_BRAND     : isom
    MINOR_VERSION   : 512
    ENCODER         : Lavf61.7.100
  Duration: 00:23:51.68, start: -0.021000, bitrate: 813 kb/s
  Stream #0:0: Video: hevc (Main 10), yuv420p10le(tv, bt709, progressive), 1920x1080 [SAR 1:1 DAR 16:9], 23.98 fps, 23.98 tbr, 1k tbn (default)
      Metadata:
        HANDLER_NAME    : VideoHandler
        VENDOR_ID       : [0][0][0][0]
        ENCODER         : Lavc61.19.100 libx265
        BPS             : 616951
        DURATION        : 00:23:51.554708333
        NUMBER_OF_FRAMES: 34323
        NUMBER_OF_BYTES : 110399998
        _STATISTICS_WRITING_APP: mkvpropedit v66.0.0 ('Josie') 64-bit
        _STATISTICS_WRITING_DATE_UTC: 2025-05-30 11:25:52
        _STATISTICS_TAGS: BPS DURATION NUMBER_OF_FRAMES NUMBER_OF_BYTES
  Stream #0:1: Audio: aac (LC), 48000 Hz, stereo, fltp (default)
      Metadata:
        HANDLER_NAME    : SoundHandler
        VENDOR_ID       : [0][0][0][0]
        ENCODER         : Lavc61.19.100 aac
        BPS             : 192475
        DURATION        : 00:23:51.680000000
        NUMBER_OF_FRAMES: 67111
        NUMBER_OF_BYTES : 34445449
        _STATISTICS_WRITING_APP: mkvpropedit v66.0.0 ('Josie') 64-bit
        _STATISTICS_WRITING_DATE_UTC: 2025-05-30 11:25:52
        _STATISTICS_TAGS: BPS DURATION NUMBER_OF_FRAMES NUMBER_OF_BYTES
Input #1, mov,mp4,m4a,3gp,3g2,mj2, from 'G:\Аниме\Онгоинги\!_36_Осень_2024\DreamCast\Грибной щенок\[DC] Kinoko Inu - 12_Telegram.mp4':
  Metadata:
    major_brand     : isom
    minor_version   : 512
    compatible_brands: isomiso2avc1mp41
    encoder         : Lavf61.1.100
  Duration: 00:23:51.62, start: 0.000000, bitrate: 3733 kb/s
  Stream #1:0[0x1](und): Video: h264 (High) (avc1 / 0x31637661), yuv420p(tv, bt709, progressive), 1920x1080 [SAR 1:1 DAR 16:9], 3585 kb/s, 23.98 fps, 23.98 tbr, 24k tbn (default)
      Metadata:
        handler_name    : VideoHandler
        vendor_id       : [0][0][0][0]
        encoder         : Lavc61.3.100 h264_qsv
  Stream #1:1[0x2](und): Audio: aac (HE-AACv2) (mp4a / 0x6134706D), 48000 Hz, stereo, fltp, 144 kb/s (default)
      Metadata:
        handler_name    : SoundHandler
        vendor_id       : [0][0][0][0]
Stream mapping:
  Stream #0:0 (hevc) -> settb:default
  Stream #1:0 (h264) -> settb:default
  psnr:default -> Stream #0:0 (wrapped_avframe)
  Stream #0:1 -> #0:1 (aac (native) -> pcm_s16le (native))
Output #0, null, to 'pipe:':
  Metadata:
    COMPATIBLE_BRANDS: isomiso2avc1mp41
    MAJOR_BRAND     : isom
    MINOR_VERSION   : 512
    encoder         : Lavf61.7.100
  Stream #0:0: Video: wrapped_avframe, yuv420p10le(tv, bt709, progressive), 1920x1080 [SAR 1:1 DAR 16:9], q=2-31, 200 kb/s, 23.98 fps, 23.98 tbn
      Metadata:
        encoder         : Lavc61.19.100 wrapped_avframe
  Stream #0:1: Audio: pcm_s16le, 48000 Hz, stereo, s16, 1536 kb/s (default)
      Metadata:
        HANDLER_NAME    : SoundHandler
        VENDOR_ID       : [0][0][0][0]
        _STATISTICS_TAGS: BPS DURATION NUMBER_OF_FRAMES NUMBER_OF_BYTES
        BPS             : 192475
        DURATION        : 00:23:51.680000000
        NUMBER_OF_FRAMES: 67111
        NUMBER_OF_BYTES : 34445449
        _STATISTICS_WRITING_APP: mkvpropedit v66.0.0 ('Josie') 64-bit
        _STATISTICS_WRITING_DATE_UTC: 2025-05-30 11:25:52
        encoder         : Lavc61.19.100 pcm_s16le
frame=  157 fps=0.0 q=-0.0 size=N/A time=00:00:06.54 bitrate=N/A speed=12.7x    frame=  427 fps=416 q=-0.0 size=N/A time=00:00:17.80 bitrate=N/A speed=17.4x    frame=  652 fps=421 q=-0.0 size=N/A time=00:00:27.19 bitrate=N/A speed=17.5x    frame=  884 fps=430 q=-0.0 size=N/A time=00:00:36.87 bitrate=N/A speed=17.9x    frame= 1146 fps=445 q=-0.0 size=N/A time=00:00:47.79 bitrate=N/A speed=18.5x    frame= 1402 fps=454 q=-0.0 size=N/A time=00:00:58.47 bitrate=N/A speed=18.9x    frame= 1669 fps=463 q=-0.0 size=N/A time=00:01:09.61 bitrate=N/A speed=19.3x    frame= 1847 fps=447 q=-0.0 size=N/A time=00:01:17.03 bitrate=N/A speed=18.7x    frame= 2096 fps=452 q=-0.0 size=N/A time=00:01:27.42 bitrate=N/A speed=18.8x    frame= 2330 fps=452 q=-0.0 size=N/A time=00:01:37.18 bitrate=N/A speed=18.8x    frame= 2577 fps=455 q=-0.0 size=N/A time=00:01:47.48 bitrate=N/A speed=  19x    frame= 2745 fps=444 q=-0.0 size=N/A time=00:01:54.48 bitrate=N/A speed=18.5x    frame= 3013 fps=449 q=-0.0 size=N/A time=00:02:05.66 bitrate=N/A speed=18.7x    frame= 3269 fps=453 q=-0.0 size=N/A time=00:02:16.34 bitrate=N/A speed=18.9x    frame= 3519 fps=455 q=-0.0 size=N/A time=00:02:26.77 bitrate=N/A speed=  19x    frame= 3754 fps=455 q=-0.0 size=N/A time=00:02:36.57 bitrate=N/A speed=  19x    frame= 3949 fps=451 q=-0.0 size=N/A time=00:02:44.70 bitrate=N/A speed=18.8x    frame= 4160 fps=448 q=-0.0 size=N/A time=00:02:53.50 bitrate=N/A speed=18.7x    frame= 4404 fps=450 q=-0.0 size=N/A time=00:03:03.68 bitrate=N/A speed=18.8x    frame= 4607 fps=447 q=-0.0 size=N/A time=00:03:12.15 bitrate=N/A speed=18.6x    frame= 4818 fps=445 q=-0.0 size=N/A time=00:03:20.95 bitrate=N/A speed=18.6x    frame= 5049 fps=445 q=-0.0 size=N/A time=00:03:30.58 bitrate=N/A speed=18.6x    frame= 5261 fps=443 q=-0.0 size=N/A time=00:03:39.42 bitrate=N/A speed=18.5x    frame= 5466 fps=442 q=-0.0 size=N/A time=00:03:47.97 bitrate=N/A speed=18.4x    frame= 5722 fps=444 q=-0.0 size=N/A time=00:03:58.65 bitrate=N/A speed=18.5x    frame= 5983 fps=446 q=-0.0 size=N/A time=00:04:09.58 bitrate=N/A speed=18.6x    frame= 6255 fps=449 q=-0.0 size=N/A time=00:04:20.88 bitrate=N/A speed=18.7x    frame= 6520 fps=452 q=-0.0 size=N/A time=00:04:31.93 bitrate=N/A speed=18.8x    frame= 6789 fps=454 q=-0.0 size=N/A time=00:04:43.15 bitrate=N/A speed=18.9x    frame= 7041 fps=455 q=-0.0 size=N/A time=00:04:53.66 bitrate=N/A speed=  19x    frame= 7315 fps=458 q=-0.0 size=N/A time=00:05:05.09 bitrate=N/A speed=19.1x    frame= 7596 fps=460 q=-0.0 size=N/A time=00:05:16.81 bitrate=N/A speed=19.2x    frame= 7861 fps=462 q=-0.0 size=N/A time=00:05:27.86 bitrate=N/A speed=19.3x    frame= 8120 fps=463 q=-0.0 size=N/A time=00:05:38.67 bitrate=N/A speed=19.3x    frame= 8396 fps=465 q=-0.0 size=N/A time=00:05:50.18 bitrate=N/A speed=19.4x    frame= 8678 fps=467 q=-0.0 size=N/A time=00:06:01.94 bitrate=N/A speed=19.5x    frame= 8931 fps=468 q=-0.0 size=N/A time=00:06:12.49 bitrate=N/A speed=19.5x    frame= 9166 fps=468 q=-0.0 size=N/A time=00:06:22.29 bitrate=N/A speed=19.5x    frame= 9426 fps=469 q=-0.0 size=N/A time=00:06:33.14 bitrate=N/A speed=19.5x    frame= 9682 fps=469 q=-0.0 size=N/A time=00:06:43.82 bitrate=N/A speed=19.6x    frame= 9954 fps=471 q=-0.0 size=N/A time=00:06:55.16 bitrate=N/A speed=19.6x    frame=10222 fps=472 q=-0.0 size=N/A time=00:07:06.34 bitrate=N/A speed=19.7x    frame=10425 fps=470 q=-0.0 size=N/A time=00:07:14.80 bitrate=N/A speed=19.6x    frame=10668 fps=470 q=-0.0 size=N/A time=00:07:24.94 bitrate=N/A speed=19.6x    frame=10905 fps=470 q=-0.0 size=N/A time=00:07:34.82 bitrate=N/A speed=19.6x    frame=11164 fps=470 q=-0.0 size=N/A time=00:07:45.63 bitrate=N/A speed=19.6x    frame=11396 fps=470 q=-0.0 size=N/A time=00:07:55.30 bitrate=N/A speed=19.6x    frame=11617 fps=469 q=-0.0 size=N/A time=00:08:04.52 bitrate=N/A speed=19.6x    frame=11872 fps=470 q=-0.0 size=N/A time=00:08:15.16 bitrate=N/A speed=19.6x    frame=12131 fps=470 q=-0.0 size=N/A time=00:08:25.96 bitrate=N/A speed=19.6x    frame=12406 fps=471 q=-0.0 size=N/A time=00:08:37.43 bitrate=N/A speed=19.7x    frame=12663 fps=472 q=-0.0 size=N/A time=00:08:48.15 bitrate=N/A speed=19.7x    frame=12932 fps=473 q=-0.0 size=N/A time=00:08:59.37 bitrate=N/A speed=19.7x    frame=13207 fps=474 q=-0.0 size=N/A time=00:09:10.84 bitrate=N/A speed=19.8x    frame=13487 fps=475 q=-0.0 size=N/A time=00:09:22.52 bitrate=N/A speed=19.8x    frame=13718 fps=475 q=-0.0 size=N/A time=00:09:32.15 bitrate=N/A speed=19.8x    frame=13982 fps=475 q=-0.0 size=N/A time=00:09:43.16 bitrate=N/A speed=19.8x    frame=14236 fps=476 q=-0.0 size=N/A time=00:09:53.75 bitrate=N/A speed=19.8x    frame=14501 fps=477 q=-0.0 size=N/A time=00:10:04.81 bitrate=N/A speed=19.9x    frame=14769 fps=477 q=-0.0 size=N/A time=00:10:15.99 bitrate=N/A speed=19.9x    frame=15044 fps=478 q=-0.0 size=N/A time=00:10:27.46 bitrate=N/A speed=19.9x    frame=15296 fps=478 q=-0.0 size=N/A time=00:10:37.97 bitrate=N/A speed=19.9x    frame=15550 fps=479 q=-0.0 size=N/A time=00:10:48.56 bitrate=N/A speed=  20x    frame=15793 fps=478 q=-0.0 size=N/A time=00:10:58.69 bitrate=N/A speed=  20x    frame=16012 fps=478 q=-0.0 size=N/A time=00:11:07.83 bitrate=N/A speed=19.9x    frame=16273 fps=478 q=-0.0 size=N/A time=00:11:18.71 bitrate=N/A speed=19.9x    frame=16538 fps=479 q=-0.0 size=N/A time=00:11:29.77 bitrate=N/A speed=  20x    frame=16788 fps=479 q=-0.0 size=N/A time=00:11:40.19 bitrate=N/A speed=  20x    frame=17038 fps=479 q=-0.0 size=N/A time=00:11:50.62 bitrate=N/A speed=  20x    frame=17258 fps=478 q=-0.0 size=N/A time=00:11:59.80 bitrate=N/A speed=19.9x    frame=17493 fps=478 q=-0.0 size=N/A time=00:12:09.60 bitrate=N/A speed=19.9x    frame=17716 fps=477 q=-0.0 size=N/A time=00:12:18.90 bitrate=N/A speed=19.9x    frame=17937 fps=476 q=-0.0 size=N/A time=00:12:28.12 bitrate=N/A speed=19.9x    frame=18182 fps=476 q=-0.0 size=N/A time=00:12:38.34 bitrate=N/A speed=19.9x    frame=18431 fps=476 q=-0.0 size=N/A time=00:12:48.72 bitrate=N/A speed=19.9x    frame=18679 fps=476 q=-0.0 size=N/A time=00:12:59.06 bitrate=N/A speed=19.9x    frame=18930 fps=477 q=-0.0 size=N/A time=00:13:09.53 bitrate=N/A speed=19.9x    frame=19194 fps=477 q=-0.0 size=N/A time=00:13:20.54 bitrate=N/A speed=19.9x    frame=19451 fps=477 q=-0.0 size=N/A time=00:13:31.26 bitrate=N/A speed=19.9x    frame=19737 fps=478 q=-0.0 size=N/A time=00:13:43.19 bitrate=N/A speed=19.9x    frame=20008 fps=479 q=-0.0 size=N/A time=00:13:54.50 bitrate=N/A speed=  20x    frame=20248 fps=479 q=-0.0 size=N/A time=00:14:04.51 bitrate=N/A speed=  20x    frame=20474 fps=478 q=-0.0 size=N/A time=00:14:13.93 bitrate=N/A speed=19.9x    frame=20703 fps=478 q=-0.0 size=N/A time=00:14:23.48 bitrate=N/A speed=19.9x    frame=20928 fps=477 q=-0.0 size=N/A time=00:14:32.87 bitrate=N/A speed=19.9x    frame=21198 fps=478 q=-0.0 size=N/A time=00:14:44.13 bitrate=N/A speed=19.9x    frame=21449 fps=478 q=-0.0 size=N/A time=00:14:54.60 bitrate=N/A speed=19.9x    frame=21692 fps=478 q=-0.0 size=N/A time=00:15:04.73 bitrate=N/A speed=19.9x    frame=21961 fps=478 q=-0.0 size=N/A time=00:15:15.95 bitrate=N/A speed=19.9x    frame=22220 fps=479 q=-0.0 size=N/A time=00:15:26.75 bitrate=N/A speed=  20x    frame=22494 fps=479 q=-0.0 size=N/A time=00:15:38.18 bitrate=N/A speed=  20x    frame=22764 fps=480 q=-0.0 size=N/A time=00:15:49.44 bitrate=N/A speed=  20x    frame=23009 fps=480 q=-0.0 size=N/A time=00:15:59.66 bitrate=N/A speed=  20x    frame=23201 fps=478 q=-0.0 size=N/A time=00:16:07.67 bitrate=N/A speed=  20x    frame=23439 fps=478 q=-0.0 size=N/A time=00:16:17.60 bitrate=N/A speed=19.9x    frame=23696 fps=478 q=-0.0 size=N/A time=00:16:28.32 bitrate=N/A speed=  20x    frame=23976 fps=479 q=-0.0 size=N/A time=00:16:39.99 bitrate=N/A speed=  20x    frame=24220 fps=479 q=-0.0 size=N/A time=00:16:50.17 bitrate=N/A speed=  20x    frame=24475 fps=479 q=-0.0 size=N/A time=00:17:00.81 bitrate=N/A speed=  20x    frame=24738 fps=479 q=-0.0 size=N/A time=00:17:11.78 bitrate=N/A speed=  20x    frame=25003 fps=480 q=-0.0 size=N/A time=00:17:22.83 bitrate=N/A speed=  20x    frame=25284 fps=480 q=-0.0 size=N/A time=00:17:34.55 bitrate=N/A speed=  20x    frame=25538 fps=480 q=-0.0 size=N/A time=00:17:45.14 bitrate=N/A speed=  20x    frame=25817 fps=481 q=-0.0 size=N/A time=00:17:56.78 bitrate=N/A speed=20.1x    frame=26094 fps=482 q=-0.0 size=N/A time=00:18:08.33 bitrate=N/A speed=20.1x    frame=26365 fps=482 q=-0.0 size=N/A time=00:18:19.64 bitrate=N/A speed=20.1x    frame=26622 fps=482 q=-0.0 size=N/A time=00:18:30.35 bitrate=N/A speed=20.1x    frame=26883 fps=482 q=-0.0 size=N/A time=00:18:41.24 bitrate=N/A speed=20.1x    frame=27145 fps=483 q=-0.0 size=N/A time=00:18:52.17 bitrate=N/A speed=20.1x    frame=27427 fps=483 q=-0.0 size=N/A time=00:19:03.93 bitrate=N/A speed=20.2x    frame=27690 fps=483 q=-0.0 size=N/A time=00:19:14.90 bitrate=N/A speed=20.2x    frame=27949 fps=484 q=-0.0 size=N/A time=00:19:25.70 bitrate=N/A speed=20.2x    frame=28216 fps=484 q=-0.0 size=N/A time=00:19:36.84 bitrate=N/A speed=20.2x    frame=28488 fps=484 q=-0.0 size=N/A time=00:19:48.18 bitrate=N/A speed=20.2x    frame=28768 fps=485 q=-0.0 size=N/A time=00:19:59.86 bitrate=N/A speed=20.2x    frame=29043 fps=485 q=-0.0 size=N/A time=00:20:11.33 bitrate=N/A speed=20.2x    frame=29307 fps=485 q=-0.0 size=N/A time=00:20:22.34 bitrate=N/A speed=20.2x    frame=29562 fps=486 q=-0.0 size=N/A time=00:20:32.98 bitrate=N/A speed=20.3x    frame=29801 fps=485 q=-0.0 size=N/A time=00:20:42.95 bitrate=N/A speed=20.2x    frame=30051 fps=485 q=-0.0 size=N/A time=00:20:53.37 bitrate=N/A speed=20.2x    frame=30299 fps=485 q=-0.0 size=N/A time=00:21:03.72 bitrate=N/A speed=20.2x    frame=30549 fps=485 q=-0.0 size=N/A time=00:21:14.14 bitrate=N/A speed=20.2x    frame=30779 fps=485 q=-0.0 size=N/A time=00:21:23.74 bitrate=N/A speed=20.2x    frame=31000 fps=485 q=-0.0 size=N/A time=00:21:32.95 bitrate=N/A speed=20.2x    frame=31229 fps=484 q=-0.0 size=N/A time=00:21:42.50 bitrate=N/A speed=20.2x    frame=31481 fps=484 q=-0.0 size=N/A time=00:21:53.02 bitrate=N/A speed=20.2x    frame=31742 fps=484 q=-0.0 size=N/A time=00:22:03.94 bitrate=N/A speed=20.2x    frame=31985 fps=484 q=-0.0 size=N/A time=00:22:14.04 bitrate=N/A speed=20.2x    frame=32247 fps=485 q=-0.0 size=N/A time=00:22:24.96 bitrate=N/A speed=20.2x    frame=32491 fps=484 q=-0.0 size=N/A time=00:22:35.14 bitrate=N/A speed=20.2x    frame=32754 fps=485 q=-0.0 size=N/A time=00:22:46.11 bitrate=N/A speed=20.2x    frame=32988 fps=484 q=-0.0 size=N/A time=00:22:55.87 bitrate=N/A speed=20.2x    frame=33246 fps=484 q=-0.0 size=N/A time=00:23:06.63 bitrate=N/A speed=20.2x    frame=33517 fps=485 q=-0.0 size=N/A time=00:23:17.93 bitrate=N/A speed=20.2x    frame=33750 fps=485 q=-0.0 size=N/A time=00:23:27.65 bitrate=N/A speed=20.2x    frame=33994 fps=484 q=-0.0 size=N/A time=00:23:37.83 bitrate=N/A speed=20.2x    frame=34283 fps=485 q=-0.0 size=N/A time=00:23:49.88 bitrate=N/A speed=20.2x    [Parsed_psnr_10 @ 0000020f48279b40] PSNR y:49.109723 u:51.115240 v:51.591202 average:49.735462 min:40.595970 max:inf
[out#0/null @ 0000020f4790ffc0] video:14748KiB audio:268444KiB subtitle:0KiB other streams:0KiB global headers:0KiB muxing overhead: unknown
frame=34323 fps=485 q=-0.0 Lsize=N/A time=00:23:51.55 bitrate=N/A speed=20.2x    
